<?xml version="1.0" encoding="UTF-8" standalone="no"?>
<!-- Created with Inkscape (http://www.inkscape.org/) -->

<svg
   width="940"
   height="190"
   viewBox="0 0 248.70833 50.270835"
   version="1.1"
   id="svg5"
   inkscape:version="1.1.1 (3bf5ae0d25, 2021-09-20)"
   sodipodi:docname="logo.svg"
   inkscape:export-filename="D:\codeguild\class_koi\code\matt\html-css\lab03\logo.png"
   inkscape:export-xdpi="96"
   inkscape:export-ydpi="96"
   xmlns:inkscape="http://www.inkscape.org/namespaces/inkscape"
   xmlns:sodipodi="http://sodipodi.sourceforge.net/DTD/sodipodi-0.dtd"
   xmlns="http://www.w3.org/2000/svg"
   xmlns:svg="http://www.w3.org/2000/svg">
  <sodipodi:namedview
     id="namedview7"
     pagecolor="#ffffff"
     bordercolor="#666666"
     borderopacity="1.0"
     inkscape:pageshadow="2"
     inkscape:pageopacity="0.0"
     inkscape:pagecheckerboard="0"
     inkscape:document-units="mm"
     showgrid="false"
     units="px"
     width="940px"
     inkscape:zoom="1"
     inkscape:cx="303.5"
     inkscape:cy="238.5"
     inkscape:window-width="3440"
     inkscape:window-height="1387"
     inkscape:window-x="1912"
     inkscape:window-y="-8"
     inkscape:window-maximized="1"
     inkscape:current-layer="layer2" />
  <defs
     id="defs2" />
  <g
     inkscape:groupmode="layer"
     id="layer2"
     inkscape:label="Layer 2" />
  <g
     inkscape:label="Layer 1"
     inkscape:groupmode="layer"
     id="layer1">
    <path
       d="m 36.360001,32.943947 q -0.05279,0.60759 -0.52794,1.08308 -0.448748,0.4755 -1.240657,0.52833 -2.164551,0.13208 -3.56359,0.13208 -1.399039,0 -3.299621,-0.13208 -1.451834,-0.13208 -1.531024,-1.26799 -0.0264,-0.44908 -0.05279,-1.16232 -0.0264,-0.73966 -0.07919,-1.2944 -0.0264,-0.55475 -0.290367,-0.87175 -0.237573,-0.31699 -0.8711,-0.31699 h -1.979773 q -0.633527,0 -0.897496,0.31699 -0.237573,0.317 -0.290367,0.87175 -0.0264,0.55474 -0.05279,1.2944 -0.0264,0.71324 -0.05279,1.16232 -0.07919,1.13591 -1.531025,1.26799 -1.900582,0.13208 -3.4844,0.13208 -1.55742,0 -3.721971,-0.13208 -0.791909,-0.0529 -1.267055,-0.52833 -0.448748,-0.47549 -0.501542,-1.08308 -0.211176,-2.32464 -0.211176,-7.47584 0,-5.15119 0.105588,-6.68334 0.105588,-1.55857 0.475146,-2.11332 0.369557,-0.58116 1.47823,-0.58116 h 6.440859 q 0.923894,0 1.557421,0.634 0.659925,0.63399 0.659925,1.63782 v 5.54744 q 0,0.95099 0.818305,0.95099 h 2.930063 q 0.818307,0 0.818307,-0.95099 v -5.54744 q 0,-1.00383 0.633527,-1.63782 0.659924,-0.634 1.583818,-0.634 h 6.097699 q 1.108673,0 1.47823,0.58116 0.369558,0.55475 0.475146,2.11332 0.105588,1.53215 0.105588,6.68334 0,5.1512 -0.211176,7.47584 z"
       id="path5027"
       style="font-size:26.2863px;line-height:1.25;font-family:Chango;-inkscape-font-specification:Chango;fill:#303f9f;fill-opacity:1;stroke:#ffffff;stroke-width:0.660009;stroke-miterlimit:4;stroke-dasharray:none;stroke-opacity:1" />
    <path
       d="m 41.797751,16.116707 h 7.074386 q 1.108673,0 1.451834,0.55474 0.369557,0.55475 0.475145,2.29823 0.131985,1.71707 0.131985,6.70977 0,4.96628 -0.211176,7.29092 -0.07919,0.60759 -0.554336,1.08308 -0.448748,0.47549 -1.214261,0.52832 -1.504627,0.10567 -3.4844,0.10567 -1.979772,0 -3.748368,-0.10567 -0.765513,-0.0529 -1.240658,-0.52832 -0.448749,-0.47549 -0.527939,-1.08308 -0.211176,-2.32464 -0.211176,-7.29092 0,-4.9927 0.105587,-6.70977 0.131986,-1.74348 0.475146,-2.29823 0.369558,-0.55474 1.478231,-0.55474 z"
       id="path5029"
       style="font-size:26.2863px;line-height:1.25;font-family:Chango;-inkscape-font-specification:Chango;fill:#303f9f;fill-opacity:1;stroke:#ffffff;stroke-width:0.660009;stroke-miterlimit:4;stroke-dasharray:none;stroke-opacity:1" />
    <path
       d="m 65.000651,31.200477 v 2.21897 q 0,1.13591 -1.55742,1.21516 -1.531025,0.0793 -3.352416,0.0793 -1.794993,0 -4.117926,-0.13209 -0.765512,-0.0529 -1.240658,-0.52832 -0.448748,-0.47549 -0.527939,-1.08308 -0.211176,-2.32464 -0.211176,-7.29092 0,-4.9927 0.158382,-7.26451 0.158382,-2.27181 2.296536,-2.29823 2.454918,-0.0529 5.252997,-0.0529 2.798079,0 6.044906,0.0793 3.273223,0.0793 5.332186,2.45672 2.058964,2.37748 2.058964,5.23045 0,2.85297 -1.821391,4.70212 -1.821391,1.84914 -5.332188,1.84914 h -2.058962 q -0.343161,0 -0.633527,0.23775 -0.290368,0.23776 -0.290368,0.58117 z m -0.0264,-9.56274 0.05279,4.88703 q 0,0.50191 0.554336,0.50191 1.636612,0 2.560505,-0.89815 0.950291,-0.92458 0.950291,-2.16615 0,-1.24157 -0.897496,-2.13973 -0.8711,-0.89815 -2.586903,-0.89815 -0.633527,0 -0.633527,0.71324 z"
       id="path5031"
       style="font-size:26.2863px;line-height:1.25;font-family:Chango;-inkscape-font-specification:Chango;fill:#303f9f;fill-opacity:1;stroke:#ffffff;stroke-width:0.660009;stroke-miterlimit:4;stroke-dasharray:none;stroke-opacity:1" />
    <path
       d="m 88.599515,31.200477 v 2.21897 q 0,1.13591 -1.557422,1.21516 -1.531023,0.0793 -3.352414,0.0793 -1.794994,0 -4.117927,-0.13209 -0.765512,-0.0529 -1.240657,-0.52832 -0.448749,-0.47549 -0.52794,-1.08308 -0.211176,-2.32464 -0.211176,-7.29092 0,-4.9927 0.158382,-7.26451 0.158382,-2.27181 2.296536,-2.29823 2.454918,-0.0529 5.252996,-0.0529 2.798079,0 6.044906,0.0793 3.273224,0.0793 5.332188,2.45672 2.058963,2.37748 2.058963,5.23045 0,2.85297 -1.82139,4.70212 -1.821391,1.84914 -5.332188,1.84914 h -2.058964 q -0.343161,0 -0.633527,0.23775 -0.290366,0.23776 -0.290366,0.58117 z m -0.0264,-9.56274 0.05279,4.88703 q 0,0.50191 0.554336,0.50191 1.636613,0 2.560507,-0.89815 0.95029,-0.92458 0.95029,-2.16615 0,-1.24157 -0.897497,-2.13973 -0.8711,-0.89815 -2.586902,-0.89815 -0.633527,0 -0.633527,0.71324 z"
       id="path5033"
       style="font-size:26.2863px;line-height:1.25;font-family:Chango;-inkscape-font-specification:Chango;fill:#303f9f;fill-opacity:1;stroke:#ffffff;stroke-width:0.660009;stroke-miterlimit:4;stroke-dasharray:none;stroke-opacity:1" />
    <path
       d="m 137.01151,35.136517 q -2.27013,0 -4.2499,-0.50191 -1.95338,-0.50191 -2.77169,-1.00382 -0.7919,-0.50192 -1.05588,-0.71325 -0.68632,-0.55474 -0.68632,-1.53215 0,-0.76608 0.18478,-1.4529 0.34316,-1.2944 1.24066,-1.2944 0.29037,0.0264 1.84779,0.60757 1.58382,0.58116 2.48131,0.58116 1.34624,0 1.34624,-1.05665 0,-0.63399 -0.65991,-1.16233 -0.65993,-0.55474 -1.61022,-1.05665 -0.9239,-0.50191 -1.87419,-1.13591 -0.95029,-0.66041 -1.61021,-1.79631 -0.65993,-1.16233 -0.65993,-2.69447 0,-2.53598 2.48131,-3.96247 2.48133,-1.45289 6.41448,-1.45289 3.93313,0 6.22967,0.8189 2.32294,0.79249 2.32294,2.21898 0,1.03024 -0.47515,1.82273 -0.47514,0.76608 -1.00309,0.76608 -0.18477,0 -1.24065,-0.39625 -1.02948,-0.42266 -1.87418,-0.42266 -1.66302,0 -1.66302,1.2944 0,0.63399 0.79191,1.16232 0.79191,0.52833 1.90059,1.03024 1.13507,0.4755 2.27014,1.08307 1.13507,0.60759 1.92698,1.66424 0.79191,1.05665 0.79191,2.56239 0,1.50573 -0.9767,2.74731 -0.95028,1.24156 -2.5341,1.9284 -3.14124,1.34723 -7.28557,1.34723 z"
       id="path5037"
       style="font-size:26.2863px;line-height:1.25;font-family:Chango;-inkscape-font-specification:Chango;fill:#303f9f;fill-opacity:1;stroke:#ffffff;stroke-width:0.660009;stroke-miterlimit:4;stroke-dasharray:none;stroke-opacity:1" />
    <path
       d="m 171.61788,21.637737 0.0528,4.88703 q 0,0.50191 0.55433,0.50191 1.63661,0 2.56051,-0.89815 0.95029,-0.92458 0.95029,-2.16615 0,-1.24157 -0.89749,-2.13973 -0.8711,-0.89815 -2.58691,-0.89815 -0.63352,0 -0.63352,0.71324 z m 6.916,7.8985 q 0.50154,0.52833 3.56359,3.98888 0.18478,0.23775 0.18478,0.42266 0,0.68683 -0.60713,0.68683 -1.39904,0.0264 -2.82448,0.0264 -1.39904,0 -2.79807,-0.0264 -0.76552,0 -1.39905,-0.60758 l -2.27013,-3.43414 q -0.13199,-0.15849 -0.31677,-0.21133 -0.42235,-0.1585 -0.42235,0.34341 v 2.69448 q 0,1.13591 -1.50463,1.21516 -1.47823,0.0793 -3.24682,0.0793 -1.7686,0 -4.27631,-0.13209 -0.76551,-0.0529 -1.24066,-0.52832 -0.44874,-0.47549 -0.52793,-1.08308 -0.21118,-2.32464 -0.21118,-7.29092 0,-4.9927 0.15837,-7.26451 0.15839,-2.27181 2.29654,-2.29823 2.00617,-0.0264 5.46418,-0.0264 3.458,0 5.72813,0.0529 3.27324,0.0529 5.35859,2.43031 2.08536,2.37747 2.08536,5.36253 0,1.74348 -0.8183,3.22279 -0.79191,1.47933 -2.37573,2.37748 z"
       id="path5039"
       style="font-size:26.2863px;line-height:1.25;font-family:Chango;-inkscape-font-specification:Chango;fill:#303f9f;fill-opacity:1;stroke:#ffffff;stroke-width:0.660009;stroke-miterlimit:4;stroke-dasharray:none;stroke-opacity:1" />
    <path
       d="m 205.69633,18.890427 -0.0528,2.4039 v 5.09836 q 0,1.10949 0.68631,1.71706 0.68632,0.60759 1.61021,0.60759 0.9239,0 1.58382,-0.60759 0.68633,-0.60757 0.68633,-1.71706 v -7.87209 q 0,-1.24157 0.31676,-1.82273 0.34316,-0.58116 1.45184,-0.58116 h 2.42852 q 0.8447,0 1.16147,0.50191 0.60712,0.89815 0.60712,6.94752 0,1.98123 -0.0528,3.03788 -0.0792,2.13973 -1.00308,3.83038 -0.89751,1.66423 -2.32294,2.66805 -2.87727,2.03407 -6.52005,2.03407 -4.80425,0 -7.94549,-2.2454 -1.58382,-1.1359 -2.50771,-3.01147 -0.89749,-1.90198 -0.9239,-4.41154 -0.0264,-1.24157 -0.0264,-3.64546 0,-2.43031 0.0528,-3.48696 0.0792,-1.08308 0.42235,-1.63782 0.36956,-0.58116 1.45183,-0.58116 h 7.04799 q 1.05588,0 1.39904,0.55474 0.44875,0.71324 0.44875,2.21898 z"
       id="path5041"
       style="font-size:26.2863px;line-height:1.25;font-family:Chango;-inkscape-font-specification:Chango;fill:#303f9f;fill-opacity:1;stroke:#ffffff;stroke-width:0.660009;stroke-miterlimit:4;stroke-dasharray:none;stroke-opacity:1" />
    <path
       d="m 226.99864,35.136517 q -2.27014,0 -4.24991,-0.50191 -1.95338,-0.50191 -2.77168,-1.00382 -0.79191,-0.50192 -1.05588,-0.71325 -0.68633,-0.55474 -0.68633,-1.53215 0,-0.76608 0.18479,-1.4529 0.34316,-1.2944 1.24065,-1.2944 0.29037,0.0264 1.84779,0.60757 1.58382,0.58116 2.48132,0.58116 1.34624,0 1.34624,-1.05665 0,-0.63399 -0.65992,-1.16233 -0.65993,-0.55474 -1.61022,-1.05665 -0.9239,-0.50191 -1.87418,-1.13591 -0.9503,-0.66041 -1.61022,-1.79631 -0.65992,-1.16233 -0.65992,-2.69447 0,-2.53598 2.48131,-3.96247 2.48132,-1.45289 6.41447,-1.45289 3.93315,0 6.22968,0.8189 2.32293,0.79249 2.32293,2.21898 0,1.03024 -0.47514,1.82273 -0.47515,0.76608 -1.00309,0.76608 -0.18478,0 -1.24066,-0.39625 -1.02947,-0.42266 -1.87418,-0.42266 -1.66301,0 -1.66301,1.2944 0,0.63399 0.79191,1.16232 0.7919,0.52833 1.90058,1.03024 1.13507,0.4755 2.27014,1.08307 1.13507,0.60759 1.92698,1.66424 0.79191,1.05665 0.79191,2.56239 0,1.50573 -0.97669,2.74731 -0.95029,1.24156 -2.53411,1.9284 -3.14124,1.34723 -7.28556,1.34723 z"
       id="path5043"
       style="font-size:26.2863px;line-height:1.25;font-family:Chango;-inkscape-font-specification:Chango;fill:#303f9f;fill-opacity:1;stroke:#ffffff;stroke-width:0.660009;stroke-miterlimit:4;stroke-dasharray:none;stroke-opacity:1" />
    <g
       id="g3837"
       transform="matrix(0.12327924,0,0,0.12337,78.623298,-14.353761)"
       style="fill:#303f9f;fill-opacity:1;stroke:#ffffff;stroke-width:5.3518;stroke-miterlimit:4;stroke-dasharray:none;stroke-opacity:1">
      <path
         id="path3802"
         d="m 216.3,371.95 c 0,0 -6.8019,44.212 -3.4009,51.241 0,0 1.9272,1.4312 5.523,3.3124 3.5958,1.8811 8.8601,4.2122 15.534,6.0118 6.6743,1.7997 14.759,3.0679 23.994,2.8235 9.2356,-0.24444 29.825,-2.455 31.129,-7.8398 l 1.3604,-30.155 c 0,0 -2.2673,32.649 6.8019,35.37 0,0 58.269,5.2148 66.432,-12.47 0,0 -5.6682,-47.386 -9.7493,-51.921 z"
         sodipodi:nodetypes="ccssscccccc"
         style="fill:#303f9f;fill-opacity:1;stroke:#ffffff;stroke-width:5.3518;stroke-linecap:round;stroke-linejoin:round;stroke-miterlimit:4;stroke-dasharray:none;stroke-opacity:1"
         inkscape:connector-curvature="0" />
      <path
         id="path3835"
         style="fill:#303f9f;fill-opacity:1;stroke:#ffffff;stroke-width:5.3518;stroke-linecap:round;stroke-linejoin:round;stroke-miterlimit:4;stroke-dasharray:none;stroke-opacity:1"
         inkscape:connector-curvature="0"
         d="m 200.22,249.86 c 0.68075,0.91363 1.4144,1.772 2.2124,2.5849 0.73241,0.71523 1.4843,1.3704 2.4145,1.8089 1.0227,0.44379 2.1135,0.70122 3.2071,0.89869 0.95672,0.14336 1.9208,0.14781 2.8746,0.30677 0.78331,0.15218 1.5376,0.20114 2.3154,0.0292 0.88947,-0.3135 1.6651,-0.86441 2.3517,-1.5004 0.57891,-0.58426 0.78367,-1.3219 0.87974,-2.1129 -0.0128,-0.71336 -0.18013,-1.4227 -0.61475,-1.9959 -0.5435,-0.50404 -1.3087,-0.51066 -2.0092,-0.55006 -0.61577,-0.013 -1.2593,0.11697 -1.828,0.38618 -0.56491,0.34476 -0.91536,0.8392 -1.2108,1.4163 -0.32108,0.73364 -0.5171,1.5047 -0.64188,2.2931 -0.2172,0.82175 -0.3407,1.6585 -0.40869,2.5044 -0.10905,0.91023 -4.8e-4,1.7948 0.25393,2.6686 0.20227,0.73014 0.47767,1.4281 0.83502,2.0944 0.37954,0.81169 0.81054,1.596 1.3768,2.2922 0.49119,0.67317 1.0929,1.246 1.7571,1.7451 0.71324,0.52163 1.4178,1.0603 2.0847,1.6399 0.58995,0.54121 1.2248,1.025 1.8464,1.5273 0.35761,0.23078 0.64353,0.54696 0.96651,0.82019 l -0.35217,0.0306 c -0.32121,-0.27458 -0.61039,-0.5867 -0.96604,-0.81927 -0.62348,-0.50019 -1.2532,-0.9897 -1.845,-1.5286 -0.66908,-0.57678 -1.3714,-1.117 -2.0853,-1.6375 -0.66311,-0.50387 -1.2654,-1.078 -1.7569,-1.7537 -0.564,-0.7003 -0.99737,-1.4854 -1.3782,-2.2987 -0.35794,-0.6684 -0.63253,-1.3697 -0.83526,-2.1018 -0.25363,-0.87792 -0.36194,-1.7674 -0.25328,-2.6813 0.0671,-0.84682 0.18975,-1.6848 0.40801,-2.5072 0.12512,-0.79181 0.32164,-1.5663 0.6413,-2.3042 0.29595,-0.58415 0.6472,-1.0842 1.2128,-1.4392 0.7803,-0.38251 1.6684,-0.43379 2.5275,-0.39975 0.70744,0.0425 1.4752,0.0571 2.0135,0.58049 0.43169,0.58539 0.60383,1.3004 0.61491,2.0229 -0.0965,0.79838 -0.3016,1.5449 -0.88243,2.1375 -0.68658,0.64142 -1.4639,1.1937 -2.3525,1.5189 -0.9934,0.23136 -2.015,0.13346 -3.0137,-0.0271 -0.95319,-0.15685 -1.9177,-0.15859 -2.8727,-0.3076 -1.0947,-0.20048 -2.187,-0.45968 -3.2098,-0.9077 -0.92827,-0.44552 -1.6812,-1.1039 -2.4135,-1.8213 -0.79899,-0.81429 -1.5301,-1.6773 -2.217,-2.5881 l 0.35326,-0.0239 z" />
      <path
         id="path3029"
         d="m 374.58,326.52 c 0,49.098 -41.299,79.685 -88.901,79.685 -47.602,0 -89.985,-36.008 -89.985,-85.106 0,-49.098 39.673,-87.274 87.274,-87.274 47.602,0 91.611,43.597 91.611,92.695 z"
         sodipodi:nodetypes="sssss"
         style="fill:#303f9f;fill-opacity:1;stroke:#ffffff;stroke-width:5.3518;stroke-miterlimit:4;stroke-dasharray:none;stroke-opacity:1"
         inkscape:connector-curvature="0" />
      <ellipse
         id="path3027"
         style="fill:#303f9f;fill-opacity:1;stroke:#ffffff;stroke-width:5.3518;stroke-miterlimit:4;stroke-dasharray:none;stroke-opacity:1"
         transform="translate(0.81312,0.54208)"
         cx="283.37085"
         cy="344.81592"
         rx="30.220804"
         ry="13.687449" />
      <path
         id="path3020"
         d="m 244.59,335.46 c -0.14181,0.73942 -0.19419,1.5392 -0.19419,2.3276 0,5.8726 4.1386,10.624 9.2561,10.624 5.1175,0 9.2561,-4.7516 9.2561,-10.624 0,-0.78832 -0.0846,-1.5881 -0.22656,-2.3276 h -18.091 z"
         style="fill:#303f9f;fill-opacity:1;stroke:#ffffff;stroke-width:5.3518;stroke-miterlimit:4;stroke-dasharray:none;stroke-opacity:1"
         inkscape:connector-curvature="0" />
      <path
         id="path3025"
         style="fill:#303f9f;fill-opacity:1;stroke:#ffffff;stroke-width:5.3518;stroke-miterlimit:4;stroke-dasharray:none;stroke-opacity:1"
         inkscape:connector-curvature="0"
         d="m 310.59,335.46 c -0.14181,0.73942 -0.19419,1.5392 -0.19419,2.3276 0,5.8726 4.1386,10.624 9.2561,10.624 5.1175,0 9.2561,-4.7516 9.2561,-10.624 0,-0.78832 -0.0846,-1.5881 -0.22656,-2.3276 h -18.091 z" />
      <path
         id="path2996"
         d="m 251.4,208.61 21.07,16.76 c 0,0 12.929,-3.8309 18.676,-0.95773 l 13.408,-17.718 c 0,0 8.6195,12.45 -8.1407,19.633 0,0 17.718,8.6195 14.366,31.126 0,0 36.394,9.0984 33.52,53.154 0,0 -0.78053,27.678 -29.991,27.678 0,0 -11.792,-0.34836 -17.638,-1.7578 -5.8459,-1.4094 -14.338,-4.9652 -21.631,-1.8953 0,0 -2.6266,1.1152 -11.768,2.2672 -9.1417,1.152 -20.199,0.80749 -27.861,-5.1783 0,0 -3.8224,-4.7728 -6.1643,-10.048 -2.3419,-5.275 -4.9308,-12.533 -5.9184,-20.464 -0.98765,-7.9312 -0.37411,-16.536 3.6887,-24.504 4.0628,-7.9686 11.575,-15.301 24.385,-20.688 0,0 4.3098,-26.816 12.929,-29.211 0,0 -13.408,4.7886 -12.929,-18.197 z"
         sodipodi:nodetypes="ccccccccscscsssccc"
         style="fill:#303f9f;fill-opacity:1;stroke:#ffffff;stroke-width:5.3518;stroke-miterlimit:4;stroke-dasharray:none;stroke-opacity:1"
         inkscape:connector-curvature="0" />
      <ellipse
         id="path2998"
         style="fill:#303f9f;fill-opacity:1;stroke:#ffffff;stroke-width:4.96362;stroke-miterlimit:4;stroke-dasharray:none;stroke-opacity:1"
         transform="matrix(1.212,0,0,0.95918,-57.755,9.5906)"
         cx="272.47253"
         cy="234.94453"
         rx="1.4365864"
         ry="1.9154484" />
      <ellipse
         id="path3000"
         style="fill:#303f9f;fill-opacity:1;stroke:#ffffff;stroke-width:4.96362;stroke-miterlimit:4;stroke-dasharray:none;stroke-opacity:1"
         transform="matrix(1.212,0,0,0.95918,-46.557,9.5906)"
         cx="272.47253"
         cy="234.94453"
         rx="1.4365864"
         ry="1.9154484" />
      <ellipse
         id="path3002"
         style="fill:#303f9f;fill-opacity:1;stroke:#ffffff;stroke-width:13.5422;stroke-miterlimit:4;stroke-dasharray:none;stroke-opacity:1"
         transform="matrix(0.44423,0,0,0.35157,164.16,151.45)"
         cx="272.47253"
         cy="234.94453"
         rx="1.4365864"
         ry="1.9154484" />
      <ellipse
         id="path3004"
         style="fill:#303f9f;fill-opacity:1;stroke:#ffffff;stroke-width:13.5422;stroke-miterlimit:4;stroke-dasharray:none;stroke-opacity:1"
         transform="matrix(0.44423,0,0,0.35157,152.99,151.45)"
         cx="272.47253"
         cy="234.94453"
         rx="1.4365864"
         ry="1.9154484" />
      <path
         id="path3006"
         d="m 268.98,251 c 0,0 13.711,0.54122 18.401,3.4277"
         style="fill:#303f9f;fill-opacity:1;stroke:#ffffff;stroke-width:5.3518;stroke-miterlimit:4;stroke-dasharray:none;stroke-opacity:1"
         inkscape:connector-curvature="0" />
      <path
         id="path3008"
         d="m 275.84,251.36 c 0,0 5.2318,-2.3453 10.464,-2.1649"
         style="fill:#303f9f;fill-opacity:1;stroke:#ffffff;stroke-width:5.3518;stroke-miterlimit:4;stroke-dasharray:none;stroke-opacity:1"
         inkscape:connector-curvature="0" />
      <ellipse
         id="path3014"
         style="fill:#303f9f;fill-opacity:1;stroke:#ffffff;stroke-width:5.3518;stroke-miterlimit:4;stroke-dasharray:none;stroke-opacity:1"
         cx="247.98778"
         cy="312.48096"
         rx="8.1642065"
         ry="7.6539435" />
      <ellipse
         id="path3016"
         style="fill:#303f9f;fill-opacity:1;stroke:#ffffff;stroke-width:5.3518;stroke-miterlimit:4;stroke-dasharray:none;stroke-opacity:1"
         transform="translate(76)"
         cx="247.98778"
         cy="312.48096"
         rx="8.1642065"
         ry="7.6539435" />
    </g>
  </g>
</svg>
